<?xml version="1.0" encoding="UTF-8" standalone="no"?>
<!DOCTYPE svg PUBLIC "-//W3C//DTD SVG 1.1//EN" "http://www.w3.org/Graphics/SVG/1.1/DTD/svg11.dtd">
<!-- Generated by Microsoft Visio, SVG Export downscale2.svg Page-1 -->
<svg xmlns="http://www.w3.org/2000/svg" xmlns:xlink="http://www.w3.org/1999/xlink" xmlns:ev="http://www.w3.org/2001/xml-events"
		xmlns:v="http://schemas.microsoft.com/visio/2003/SVGExtensions/" width="11.6929in" height="8.26772in"
		viewBox="0 0 841.89 595.276" xml:space="preserve" color-interpolation-filters="sRGB" class="st14">
	<v:documentProperties v:langID="2057" v:metric="true" v:viewMarkup="false">
		<v:userDefs>
			<v:ud v:nameU="msvNoAutoConnect" v:val="VT0(1):26"/>
		</v:userDefs>
	</v:documentProperties>

	<style type="text/css">
	<![CDATA[
		.st1 {stroke:#000000;stroke-dasharray:0.75,1.5;stroke-linecap:round;stroke-linejoin:round;stroke-width:0.75}
		.st2 {stroke:#000000;stroke-linecap:round;stroke-linejoin:round;stroke-width:0.75}
		.st3 {fill:#0070c0;stroke:#0070c0;stroke-linecap:round;stroke-linejoin:round;stroke-width:0.75}
		.st4 {fill:#00b050;stroke:#00b050;stroke-linecap:round;stroke-linejoin:round;stroke-width:0.75}
		.st5 {fill:#7030a0;stroke:#7030a0;stroke-linecap:round;stroke-linejoin:round;stroke-width:0.75}
		.st6 {fill:#ff0000;stroke:#ff0000;stroke-linecap:round;stroke-linejoin:round;stroke-width:0.75}
		.st7 {fill:#d8d8d8;stroke:#000000;stroke-linecap:round;stroke-linejoin:round;stroke-width:0.75}
		.st8 {fill:#0070c0;stroke:#0070c0;stroke-linecap:round;stroke-linejoin:round;stroke-width:0.24}
		.st9 {fill:#00b050;stroke:#00b050;stroke-linecap:round;stroke-linejoin:round;stroke-width:0.24}
		.st10 {fill:#ff0000;stroke:#ff0000;stroke-linecap:round;stroke-linejoin:round;stroke-width:0.24}
		.st11 {fill:#7030a0;stroke:#7030a0;stroke-linecap:round;stroke-linejoin:round;stroke-width:0.24}
		.st12 {fill:none;stroke:none;stroke-linecap:round;stroke-linejoin:round;stroke-width:0.75}
		.st13 {fill:#000000;font-family:Calibri;font-size:1.00001em}
		.st14 {fill:none;fill-rule:evenodd;font-size:12px;overflow:visible;stroke-linecap:square;stroke-miterlimit:3}
	]]>
	</style>

	<g v:mID="0" v:index="1" v:groupContext="foregroundPage">
		<title>Page-1</title>
		<v:pageProperties v:drawingScale="0.0393701" v:pageScale="0.0393701" v:drawingUnits="24" v:shadowOffsetX="8.50394"
				v:shadowOffsetY="-8.50394"/>
		<g id="shape1-1" v:mID="1" v:groupContext="shape" transform="translate(266.457,-320.315)">
			<title>Sheet.1</title>
			<path d="M0 595.28 L147.4 595.28" class="st1"/>
		</g>
		<g id="shape2-4" v:mID="2" v:groupContext="shape" transform="translate(385.907,-321.079) rotate(23.0255)">
			<title>Sheet.2</title>
			<path d="M0 595.28 L123.2 595.28" class="st1"/>
		</g>
		<g id="shape3-7" v:mID="3" v:groupContext="shape" transform="translate(-328.819,388.346) rotate(-90)">
			<title>Sheet.3</title>
			<path d="M0 595.28 L113.39 595.28" class="st1"/>
		</g>
		<g id="shape4-10" v:mID="4" v:groupContext="shape" transform="translate(385.907,-207.693) rotate(23.0255)">
			<title>Sheet.4</title>
			<path d="M0 595.28 L123.2 595.28" class="st1"/>
		</g>
		<g id="shape5-13" v:mID="5" v:groupContext="shape" transform="translate(266.457,-206.929)">
			<title>Sheet.5</title>
			<path d="M0 595.28 L147.4 595.28" class="st1"/>
		</g>
		<g id="shape6-16" v:mID="6" v:groupContext="shape" transform="translate(533.309,-207.693) rotate(23.0255)">
			<title>Sheet.6</title>
			<path d="M0 595.28 L123.2 595.28" class="st1"/>
		</g>
		<g id="shape7-19" v:mID="7" v:groupContext="shape" transform="translate(153.071,-255.118)">
			<title>Sheet.7</title>
			<path d="M0 595.28 L147.4 595.28" class="st1"/>
		</g>
		<g id="shape8-22" v:mID="8" v:groupContext="shape" transform="translate(-442.205,340.157) rotate(-90)">
			<title>Sheet.8</title>
			<path d="M0 595.28 L113.39 595.28" class="st1"/>
		</g>
		<g id="shape9-25" v:mID="9" v:groupContext="shape" transform="translate(-294.803,340.157) rotate(-90)">
			<title>Sheet.9</title>
			<path d="M0 595.28 L113.39 595.28" class="st2"/>
		</g>
		<g id="shape10-28" v:mID="10" v:groupContext="shape" transform="translate(-181.417,388.346) rotate(-90)">
			<title>Sheet.10</title>
			<path d="M0 595.28 L113.39 595.28" class="st1"/>
		</g>
		<g id="shape11-31" v:mID="11" v:groupContext="shape" transform="translate(533.309,-321.079) rotate(23.0255)">
			<title>Sheet.11</title>
			<path d="M0 595.28 L123.2 595.28" class="st1"/>
		</g>
		<g id="shape12-34" v:mID="12" v:groupContext="shape" transform="translate(153.071,-368.504)">
			<title>Sheet.12</title>
			<path d="M0 595.28 L147.4 595.28" class="st1"/>
		</g>
		<g id="shape13-37" v:mID="13" v:groupContext="shape" transform="translate(697.718,-207.693) rotate(23.0255)">
			<title>Sheet.13</title>
			<path d="M0 595.28 L123.2 595.28" class="st2"/>
		</g>
		<g id="shape14-40" v:mID="14" v:groupContext="shape" transform="translate(578.268,-206.929)">
			<title>Sheet.14</title>
			<path d="M0 595.28 L147.4 595.28" class="st2"/>
		</g>
		<g id="shape15-43" v:mID="15" v:groupContext="shape" transform="translate(845.12,-207.693) rotate(23.0255)">
			<title>Sheet.15</title>
			<path d="M0 595.28 L123.2 595.28" class="st1"/>
		</g>
		<g id="shape16-46" v:mID="16" v:groupContext="shape" transform="translate(464.882,-255.118)">
			<title>Sheet.16</title>
			<path d="M0 595.28 L147.4 595.28" class="st1"/>
		</g>
		<g id="shape17-49" v:mID="17" v:groupContext="shape" transform="translate(-130.394,340.157) rotate(-90)">
			<title>Sheet.17</title>
			<path d="M0 595.28 L113.39 595.28" class="st1"/>
		</g>
		<g id="shape18-52" v:mID="18" v:groupContext="shape" transform="translate(-17.0078,388.346) rotate(-90)">
			<title>Sheet.18</title>
			<path d="M0 595.28 L113.39 595.28" class="st1"/>
		</g>
		<g id="shape19-55" v:mID="19" v:groupContext="shape" transform="translate(17.0079,340.157) rotate(-90)">
			<title>Sheet.19</title>
			<path d="M0 595.28 L113.39 595.28" class="st1"/>
		</g>
		<g id="shape20-58" v:mID="20" v:groupContext="shape" transform="translate(130.394,388.346) rotate(-90)">
			<title>Sheet.20</title>
			<path d="M0 595.28 L113.39 595.28" class="st1"/>
		</g>
		<g id="shape21-61" v:mID="21" v:groupContext="shape" transform="translate(697.718,-321.079) rotate(23.0255)">
			<title>Sheet.21</title>
			<path d="M0 595.28 L123.2 595.28" class="st1"/>
		</g>
		<g id="shape22-64" v:mID="22" v:groupContext="shape" transform="translate(845.12,-321.079) rotate(23.0255)">
			<title>Sheet.22</title>
			<path d="M0 595.28 L123.2 595.28" class="st1"/>
		</g>
		<g id="shape23-67" v:mID="23" v:groupContext="shape" transform="translate(578.268,-320.315)">
			<title>Sheet.23</title>
			<path d="M0 595.28 L147.4 595.28" class="st1"/>
		</g>
		<g id="shape24-70" v:mID="24" v:groupContext="shape" transform="translate(464.882,-368.504)">
			<title>Sheet.24</title>
			<path d="M0 595.28 L147.4 595.28" class="st1"/>
		</g>
		<g id="shape25-73" v:mID="25" v:groupContext="shape" transform="translate(768.585,-252.087) rotate(23.0255)">
			<title>Sheet.25</title>
			<path d="M0 595.28 L59.14 595.28" class="st2"/>
		</g>
		<g id="shape26-76" v:mID="26" v:groupContext="shape" transform="translate(72.0565,287.018) rotate(-90)">
			<title>Sheet.26</title>
			<path d="M0 595.28 L17.73 595.28" class="st1"/>
		</g>
		<g id="shape27-79" v:mID="27" v:groupContext="shape" transform="translate(-75.9611,363.291) rotate(-90)">
			<title>Sheet.27</title>
			<path d="M0 595.28 L44.96 595.28" class="st1"/>
		</g>
		<g id="shape28-82" v:mID="28" v:groupContext="shape" transform="translate(53.8583,388.346) rotate(-90)">
			<title>Sheet.28</title>
			<path d="M0 595.28 L76.54 595.28" class="st1"/>
		</g>
		<g id="shape29-85" v:mID="29" v:groupContext="shape" transform="translate(752.151,-204.402) rotate(23.0255)">
			<title>Sheet.29</title>
			<path d="M0 595.28 L64.06 595.28" class="st1"/>
		</g>
		<g id="shape30-88" v:mID="30" v:groupContext="shape" transform="translate(578.268,-226.772)">
			<title>Sheet.30</title>
			<path d="M0 595.28 L70.87 595.28" class="st1"/>
		</g>
		<g id="shape31-91" v:mID="31" v:groupContext="shape" transform="translate(823.017,-204.402) rotate(23.0255)">
			<title>Sheet.31</title>
			<path d="M0 595.28 L64.06 595.28" class="st1"/>
		</g>
		<g id="shape32-94" v:mID="32" v:groupContext="shape" transform="translate(649.134,-283.465)">
			<title>Sheet.32</title>
			<path d="M0 595.28 L76.54 595.28" class="st2"/>
		</g>
		<g id="shape33-97" v:mID="33" v:groupContext="shape" transform="translate(590.181,-325.984)">
			<title>Sheet.33</title>
			<path d="M0 595.28 L77.15 595.28" class="st2"/>
		</g>
		<g id="shape34-100" v:mID="34" v:groupContext="shape" transform="translate(771.558,-300.77) rotate(23.3368)">
			<title>Sheet.34</title>
			<path d="M0 595.28 L59.28 595.28" class="st2"/>
		</g>
		<g id="shape35-103" v:mID="35" v:groupContext="shape" transform="translate(519.314,-251.827)">
			<title>Sheet.35</title>
			<path d="M0 595.28 L70.87 595.28" class="st1"/>
		</g>
		<g id="shape36-106" v:mID="36" v:groupContext="shape" transform="translate(900.169,-260.833) rotate(23.0255)">
			<title>Sheet.36</title>
			<path d="M0 595.28 L63.39 595.28" class="st2"/>
		</g>
		<g id="shape37-109" v:mID="37" v:groupContext="shape" transform="translate(823.017,-261.095) rotate(23.0255)">
			<title>Sheet.37</title>
			<path d="M0 595.28 L64.06 595.28" class="st2"/>
		</g>
		<g id="shape38-112" v:mID="38" v:groupContext="shape" transform="translate(592.201,-308.516) rotate(0.194435)">
			<title>Sheet.38</title>
			<path d="M0 595.28 L77.15 595.28" class="st2"/>
		</g>
		<g id="shape39-115" v:mID="39" v:groupContext="shape" transform="translate(535.748,-349.468)">
			<title>Sheet.39</title>
			<path d="M0 595.28 L76.33 595.28" class="st2"/>
		</g>
		<g id="shape40-118" v:mID="40" v:groupContext="shape" transform="translate(844.912,-302.043) rotate(23.0255)">
			<title>Sheet.40</title>
			<path d="M0 595.28 L60.04 595.28" class="st2"/>
		</g>
		<g id="shape41-121" v:mID="41" v:groupContext="shape" transform="translate(592.201,-308.516) rotate(0.194435)">
			<title>Sheet.41</title>
			<path d="M0 595.28 L77.15 595.28" class="st2"/>
		</g>
		<g id="shape42-124" v:mID="42" v:groupContext="shape" transform="translate(524.076,-276.926) rotate(0.458343)">
			<title>Sheet.42</title>
			<path d="M0 595.28 L70.87 595.28" class="st2"/>
		</g>
		<g id="shape43-127" v:mID="43" v:groupContext="shape" transform="translate(699.165,-252.207) rotate(23.1769)">
			<title>Sheet.43</title>
			<path d="M0 595.28 L59.21 595.28" class="st2"/>
		</g>
		<g id="shape44-130" v:mID="44" v:groupContext="shape" transform="translate(471.071,-300.216) rotate(0.595752)">
			<title>Sheet.44</title>
			<path d="M0 595.28 L70.87 595.28" class="st2"/>
		</g>
		<g id="shape45-133" v:mID="45" v:groupContext="shape" transform="translate(-59.5275,295.764) rotate(-90)">
			<title>Sheet.45</title>
			<path d="M0 595.28 L49.96 595.28" class="st2"/>
		</g>
		<g id="shape46-136" v:mID="46" v:groupContext="shape" transform="translate(-5.095,343.449) rotate(-90)">
			<title>Sheet.46</title>
			<path d="M0 595.28 L74.16 595.28" class="st1"/>
		</g>
		<g id="shape47-139" v:mID="47" v:groupContext="shape" transform="translate(416.297,859.662) rotate(-156.975)">
			<title>Sheet.47</title>
			<path d="M0 595.28 L64.06 595.28" class="st2"/>
		</g>
		<g id="shape48-142" v:mID="48" v:groupContext="shape" transform="translate(590.181,-283.465)">
			<title>Sheet.48</title>
			<path d="M135.49 595.28 L58.95 595.28 L0 570.22 L77.15 570.48 L135.49 595.28 Z" class="st3"/>
		</g>
		<g id="shape49-144" v:mID="49" v:groupContext="shape" transform="translate(535.748,-325.984)">
			<title>Sheet.49</title>
			<path d="M131.58 595.28 L54.43 595.28 L0 571.79 L76.33 571.79 L131.58 595.28 Z" class="st4"/>
		</g>
		<g id="shape50-146" v:mID="50" v:groupContext="shape" transform="translate(519.314,-226.772)">
			<title>Sheet.50</title>
			<path d="M58.95 595.28 L0 570.22 L70.87 570.22 L129.82 595.28 L58.95 595.28 Z" class="st5"/>
		</g>
		<g id="shape51-148" v:mID="51" v:groupContext="shape" transform="translate(464.882,-276.378)">
			<title>Sheet.51</title>
			<path d="M125.3 595.28 L54.43 594.71 L0 571.4 L70.87 572.14 L125.3 595.28 Z" class="st6"/>
		</g>
		<g id="shape52-150" v:mID="52" v:groupContext="shape" transform="translate(153.071,-218.268)">
			<title>Sheet.52</title>
			<path d="M113.39 595.28 L260.79 532.91 L147.4 459.21 L0 515.91 L113.39 595.28 Z" class="st7"/>
		</g>
		<g id="shape53-152" v:mID="53" v:groupContext="shape" transform="translate(34.5135,-171.221) rotate(-22.9321)">
			<title>Sheet.53</title>
			<path d="M0 595.28 L160.05 595.28" class="st1"/>
		</g>
		<g id="shape54-155" v:mID="54" v:groupContext="shape" transform="translate(-22.0481,-210.815) rotate(-22.9321)">
			<title>Sheet.54</title>
			<path d="M0 595.28 L157.19 595.28" class="st1"/>
		</g>
		<g id="shape55-158" v:mID="55" v:groupContext="shape" transform="translate(494.439,-190.031) rotate(34.992)">
			<title>Sheet.55</title>
			<path d="M0 595.28 L138.41 595.28" class="st1"/>
		</g>
		<g id="shape56-161" v:mID="56" v:groupContext="shape" transform="translate(571.179,-219.546) rotate(34.992)">
			<title>Sheet.56</title>
			<path d="M0 595.28 L135.2 595.28" class="st1"/>
		</g>
		<g id="shape57-164" v:mID="57" v:groupContext="shape" transform="translate(341.792,-281.264)">
			<title>Ellipse</title>
			<v:userDefs>
				<v:ud v:nameU="visVersion" v:val="VT0(15):26"/>
			</v:userDefs>
			<path d="M0 591.36 A5.87492 3.91661 0 0 1 11.75 591.36 A5.87492 3.91661 0 0 1 0 591.36 Z" class="st8"/>
		</g>
		<g id="shape58-166" v:mID="58" v:groupContext="shape" transform="translate(286.485,-319.196)">
			<title>Ellipse.249</title>
			<v:userDefs>
				<v:ud v:nameU="visVersion" v:val="VT0(15):26"/>
			</v:userDefs>
			<path d="M0 591.36 A5.87492 3.91661 0 0 1 11.75 591.36 A5.87492 3.91661 0 0 1 0 591.36 Z" class="st9"/>
		</g>
		<g id="shape59-168" v:mID="59" v:groupContext="shape" transform="translate(213.941,-289.805)">
			<title>Ellipse.250</title>
			<v:userDefs>
				<v:ud v:nameU="visVersion" v:val="VT0(15):26"/>
			</v:userDefs>
			<path d="M0 591.36 A5.87492 3.91661 0 0 1 11.75 591.36 A5.87492 3.91661 0 0 1 0 591.36 Z" class="st10"/>
		</g>
		<g id="shape60-170" v:mID="60" v:groupContext="shape" transform="translate(269.441,-249.523)">
			<title>Ellipse.252</title>
			<v:userDefs>
				<v:ud v:nameU="visVersion" v:val="VT0(15):26"/>
			</v:userDefs>
			<path d="M0 591.36 A5.87492 3.91661 0 0 1 11.75 591.36 A5.87492 3.91661 0 0 1 0 591.36 Z" class="st11"/>
		</g>
		<g id="shape61-172" v:mID="61" v:groupContext="shape" transform="translate(228.591,-384.803)">
			<title>Sheet.61</title>
			<desc>Coarse resolution</desc>
			<v:textBlock v:margins="rect(4,4,4,4)" v:tabSpace="42.5197"/>
			<v:textRect cx="54.8739" cy="583.228" width="109.75" height="24.0945"/>
			<rect x="0" y="571.181" width="109.748" height="24.0945" class="st12"/>
			<text x="13.39" y="586.83" class="st13" v:langID="2057"><v:paragraph v:horizAlign="1"/><v:tabList/>Coarse resolution  </text>		</g>
		<g id="shape62-175" v:mID="62" v:groupContext="shape" transform="translate(546.666,-386.929)">
			<title>Sheet.62</title>
			<desc>Finer resolution</desc>
			<v:textBlock v:margins="rect(4,4,4,4)" v:tabSpace="42.5197"/>
			<v:textRect cx="54.8739" cy="583.228" width="109.75" height="24.0945"/>
			<rect x="0" y="571.181" width="109.748" height="24.0945" class="st12"/>
			<text x="17.69" y="586.83" class="st13" v:langID="2057"><v:paragraph v:horizAlign="1"/><v:tabList/>Finer resolution  </text>		</g>
	</g>
</svg>
