<?xml version="1.0" encoding="UTF-8" standalone="no"?>
<!DOCTYPE svg PUBLIC "-//W3C//DTD SVG 1.1//EN" "http://www.w3.org/Graphics/SVG/1.1/DTD/svg11.dtd">
<!-- Generated by Microsoft Visio, SVG Export downscale2.svg Page-1 -->
<svg xmlns="http://www.w3.org/2000/svg" xmlns:xlink="http://www.w3.org/1999/xlink" xmlns:ev="http://www.w3.org/2001/xml-events"
		xmlns:v="http://schemas.microsoft.com/visio/2003/SVGExtensions/" width="11.6929in" height="8.26772in"
		viewBox="0 0 841.89 595.276" xml:space="preserve" color-interpolation-filters="sRGB" class="st14">
	<v:documentProperties v:langID="2057" v:metric="true" v:viewMarkup="false">
		<v:userDefs>
			<v:ud v:nameU="msvNoAutoConnect" v:val="VT0(1):26"/>
		</v:userDefs>
	</v:documentProperties>

	<style type="text/css">
	<![CDATA[
		.st1 {stroke:#000000;stroke-dasharray:0.75,1.5;stroke-linecap:round;stroke-linejoin:round;stroke-width:0.75}
		.st2 {stroke:#000000;stroke-linecap:round;stroke-linejoin:round;stroke-width:0.75}
		.st3 {fill:#0070c0;stroke:#0070c0;stroke-linecap:round;stroke-linejoin:round;stroke-width:0.75}
		.st4 {fill:#00b050;stroke:#00b050;stroke-linecap:round;stroke-linejoin:round;stroke-width:0.75}
		.st5 {fill:#7030a0;stroke:#7030a0;stroke-linecap:round;stroke-linejoin:round;stroke-width:0.75}
		.st6 {fill:#ff0000;stroke:#ff0000;stroke-linecap:round;stroke-linejoin:round;stroke-width:0.75}
		.st7 {fill:#d8d8d8;stroke:#000000;stroke-linecap:round;stroke-linejoin:round;stroke-width:0.75}
		.st8 {fill:#0070c0;stroke:#0070c0;stroke-linecap:round;stroke-linejoin:round;stroke-width:0.24}
		.st9 {fill:#00b050;stroke:#00b050;stroke-linecap:round;stroke-linejoin:round;stroke-width:0.24}
		.st10 {fill:#ff0000;stroke:#ff0000;stroke-linecap:round;stroke-linejoin:round;stroke-width:0.24}
		.st11 {fill:#7030a0;stroke:#7030a0;stroke-linecap:round;stroke-linejoin:round;stroke-width:0.24}
		.st12 {fill:none;stroke:none;stroke-linecap:round;stroke-linejoin:round;stroke-width:0.75}
		.st13 {fill:#000000;font-family:Calibri;font-size:2.50001em}
		.st14 {fill:none;fill-rule:evenodd;font-size:12px;overflow:visible;stroke-linecap:square;stroke-miterlimit:3}
	]]>
	</style>

	<g v:mID="0" v:index="1" v:groupContext="foregroundPage">
		<title>Page-1</title>
		<v:pageProperties v:drawingScale="0.0393701" v:pageScale="0.0393701" v:drawingUnits="24" v:shadowOffsetX="8.50394"
				v:shadowOffsetY="-8.50394"/>
		<g id="shape5-1" v:mID="5" v:groupContext="shape" transform="translate(177.217,-166.952)">
			<title>Sheet.5</title>
			<path d="M0 595.28 L206.98 595.28" class="st1"/>
		</g>
		<g id="shape6-4" v:mID="6" v:groupContext="shape" transform="translate(457.819,-187.194) rotate(23.0255)">
			<title>Sheet.6</title>
			<path d="M0 595.28 L173 595.28" class="st1"/>
		</g>
		<g id="shape7-7" v:mID="7" v:groupContext="shape" transform="translate(18,-234.62)">
			<title>Sheet.7</title>
			<path d="M0 595.28 L206.98 595.28" class="st1"/>
		</g>
		<g id="shape8-10" v:mID="8" v:groupContext="shape" transform="translate(-577.276,360.656) rotate(-90)">
			<title>Sheet.8</title>
			<path d="M0 595.28 L159.22 595.28" class="st1"/>
		</g>
		<g id="shape9-13" v:mID="9" v:groupContext="shape" transform="translate(-370.293,360.656) rotate(-90)">
			<title>Sheet.9</title>
			<path d="M0 595.28 L159.22 595.28" class="st2"/>
		</g>
		<g id="shape10-16" v:mID="10" v:groupContext="shape" transform="translate(-211.076,428.323) rotate(-90)">
			<title>Sheet.10</title>
			<path d="M0 595.28 L159.22 595.28" class="st1"/>
		</g>
		<g id="shape11-19" v:mID="11" v:groupContext="shape" transform="translate(457.819,-346.412) rotate(23.0255)">
			<title>Sheet.11</title>
			<path d="M0 595.28 L173 595.28" class="st1"/>
		</g>
		<g id="shape12-22" v:mID="12" v:groupContext="shape" transform="translate(18,-393.837)">
			<title>Sheet.12</title>
			<path d="M0 595.28 L206.98 595.28" class="st1"/>
		</g>
		<g id="shape13-25" v:mID="13" v:groupContext="shape" transform="translate(688.684,-187.194) rotate(23.0255)">
			<title>Sheet.13</title>
			<path d="M0 595.28 L173 595.28" class="st1"/>
		</g>
		<g id="shape14-28" v:mID="14" v:groupContext="shape" transform="translate(615.065,-166.952)">
			<title>Sheet.14</title>
			<path d="M0 595.28 L206.98 595.28" class="st1"/>
		</g>
		<g id="shape15-31" v:mID="15" v:groupContext="shape" transform="translate(895.666,-187.194) rotate(23.0255)">
			<title>Sheet.15</title>
			<path d="M0 595.28 L173 595.28" class="st1"/>
		</g>
		<g id="shape16-34" v:mID="16" v:groupContext="shape" transform="translate(455.848,-234.62)">
			<title>Sheet.16</title>
			<path d="M0 595.28 L206.98 595.28" class="st1"/>
		</g>
		<g id="shape17-37" v:mID="17" v:groupContext="shape" transform="translate(-139.428,360.656) rotate(-90)">
			<title>Sheet.17</title>
			<path d="M0 595.28 L159.22 595.28" class="st1"/>
		</g>
		<g id="shape19-40" v:mID="19" v:groupContext="shape" transform="translate(67.5544,360.656) rotate(-90)">
			<title>Sheet.19</title>
			<path d="M0 595.28 L159.22 595.28" class="st1"/>
		</g>
		<g id="shape20-43" v:mID="20" v:groupContext="shape" transform="translate(226.772,428.323) rotate(-90)">
			<title>Sheet.20</title>
			<path d="M0 595.28 L159.22 595.28" class="st1"/>
		</g>
		<g id="shape21-46" v:mID="21" v:groupContext="shape" transform="translate(688.684,-346.412) rotate(23.0255)">
			<title>Sheet.21</title>
			<path d="M0 595.28 L173 595.28" class="st1"/>
		</g>
		<g id="shape22-49" v:mID="22" v:groupContext="shape" transform="translate(895.666,-346.412) rotate(23.0255)">
			<title>Sheet.22</title>
			<path d="M0 595.28 L173 595.28" class="st1"/>
		</g>
		<g id="shape23-52" v:mID="23" v:groupContext="shape" transform="translate(615.065,-326.17)">
			<title>Sheet.23</title>
			<path d="M0 595.28 L206.98 595.28" class="st1"/>
		</g>
		<g id="shape24-55" v:mID="24" v:groupContext="shape" transform="translate(455.848,-393.837)">
			<title>Sheet.24</title>
			<path d="M0 595.28 L206.98 595.28" class="st1"/>
		</g>
		<g id="shape25-58" v:mID="25" v:groupContext="shape" transform="translate(788.195,-249.532) rotate(23.0255)">
			<title>Sheet.25</title>
			<path d="M0 595.28 L83.05 595.28" class="st2"/>
		</g>
		<g id="shape26-61" v:mID="26" v:groupContext="shape" transform="translate(144.854,393.508) rotate(-90)">
			<title>Sheet.26</title>
			<path d="M0 595.28 L132.36 595.28" class="st1"/>
		</g>
		<g id="shape27-64" v:mID="27" v:groupContext="shape" transform="translate(-62.9935,393.141) rotate(-90)">
			<title>Sheet.27</title>
			<path d="M0 595.28 L63.13 595.28" class="st1"/>
		</g>
		<g id="shape28-67" v:mID="28" v:groupContext="shape" transform="translate(119.3,428.323) rotate(-90)">
			<title>Sheet.28</title>
			<path d="M0 595.28 L107.47 595.28" class="st1"/>
		</g>
		<g id="shape29-70" v:mID="29" v:groupContext="shape" transform="translate(765.119,-182.573) rotate(23.0255)">
			<title>Sheet.29</title>
			<path d="M0 595.28 L89.95 595.28" class="st1"/>
		</g>
		<g id="shape30-73" v:mID="30" v:groupContext="shape" transform="translate(615.065,-194.815)">
			<title>Sheet.30</title>
			<path d="M0 595.28 L99.51 595.28" class="st1"/>
		</g>
		<g id="shape31-76" v:mID="31" v:groupContext="shape" transform="translate(864.629,-182.573) rotate(23.0255)">
			<title>Sheet.31</title>
			<path d="M0 595.28 L89.95 595.28" class="st1"/>
		</g>
		<g id="shape32-79" v:mID="32" v:groupContext="shape" transform="translate(714.576,-274.424)">
			<title>Sheet.32</title>
			<path d="M0 595.28 L107.47 595.28" class="st2"/>
		</g>
		<g id="shape33-82" v:mID="33" v:groupContext="shape" transform="translate(631.793,-334.13)">
			<title>Sheet.33</title>
			<path d="M0 595.28 L108.34 595.28" class="st2"/>
		</g>
		<g id="shape34-85" v:mID="34" v:groupContext="shape" transform="translate(791.168,-318.408) rotate(23.3368)">
			<title>Sheet.34</title>
			<path d="M0 595.28 L83.24 595.28" class="st2"/>
		</g>
		<g id="shape35-88" v:mID="35" v:groupContext="shape" transform="translate(532.282,-229.998)">
			<title>Sheet.35</title>
			<path d="M0 595.28 L99.51 595.28" class="st1"/>
		</g>
		<g id="shape36-91" v:mID="36" v:groupContext="shape" transform="translate(972.966,-261.814) rotate(23.0255)">
			<title>Sheet.36</title>
			<path d="M0 595.28 L89.01 595.28" class="st2"/>
		</g>
		<g id="shape37-94" v:mID="37" v:groupContext="shape" transform="translate(864.629,-262.181) rotate(23.0255)">
			<title>Sheet.37</title>
			<path d="M0 595.28 L89.95 595.28" class="st2"/>
		</g>
		<g id="shape38-97" v:mID="38" v:groupContext="shape" transform="translate(633.813,-309.603) rotate(0.194435)">
			<title>Sheet.38</title>
			<path d="M0 595.28 L108.34 595.28" class="st2"/>
		</g>
		<g id="shape39-100" v:mID="39" v:groupContext="shape" transform="translate(555.358,-367.107)">
			<title>Sheet.39</title>
			<path d="M0 595.28 L107.18 595.28" class="st2"/>
		</g>
		<g id="shape40-103" v:mID="40" v:groupContext="shape" transform="translate(895.375,-319.682) rotate(23.0255)">
			<title>Sheet.40</title>
			<path d="M0 595.28 L84.31 595.28" class="st2"/>
		</g>
		<g id="shape41-106" v:mID="41" v:groupContext="shape" transform="translate(633.813,-309.603) rotate(0.194435)">
			<title>Sheet.41</title>
			<path d="M0 595.28 L108.34 595.28" class="st2"/>
		</g>
		<g id="shape42-109" v:mID="42" v:groupContext="shape" transform="translate(537.044,-265.25) rotate(0.458343)">
			<title>Sheet.42</title>
			<path d="M0 595.28 L99.51 595.28" class="st2"/>
		</g>
		<g id="shape43-112" v:mID="43" v:groupContext="shape" transform="translate(690.131,-249.95) rotate(23.1769)">
			<title>Sheet.43</title>
			<path d="M0 595.28 L83.14 595.28" class="st2"/>
		</g>
		<g id="shape44-115" v:mID="44" v:groupContext="shape" transform="translate(462.037,-297.96) rotate(0.595752)">
			<title>Sheet.44</title>
			<path d="M0 595.28 L99.52 595.28" class="st2"/>
		</g>
		<g id="shape45-118" v:mID="45" v:groupContext="shape" transform="translate(-39.9173,360.656) rotate(-90)">
			<title>Sheet.45</title>
			<path d="M0 595.28 L132.49 595.28" class="st1"/>
		</g>
		<g id="shape46-121" v:mID="46" v:groupContext="shape" transform="translate(36.5173,365.278) rotate(-90)">
			<title>Sheet.46</title>
			<path d="M0 595.28 L104.13 595.28" class="st1"/>
		</g>
		<g id="shape47-124" v:mID="47" v:groupContext="shape" transform="translate(481.739,868.702) rotate(-156.975)">
			<title>Sheet.47</title>
			<path d="M0 595.28 L89.95 595.28" class="st2"/>
		</g>
		<g id="shape48-127" v:mID="48" v:groupContext="shape" transform="translate(631.793,-274.424)">
			<title>Sheet.48</title>
			<path d="M190.25 595.28 L82.78 595.28 L0 560.09 L108.34 560.46 L190.25 595.28 Z" class="st3"/>
		</g>
		<g id="shape49-129" v:mID="49" v:groupContext="shape" transform="translate(555.358,-334.13)">
			<title>Sheet.49</title>
			<path d="M184.77 595.28 L76.43 595.28 L0 562.3 L107.18 562.3 L184.77 595.28 Z" class="st4"/>
		</g>
		<g id="shape50-131" v:mID="50" v:groupContext="shape" transform="translate(532.282,-194.815)">
			<title>Sheet.50</title>
			<path d="M82.78 595.28 L0 560.09 L99.51 560.09 L182.29 595.28 L82.78 595.28 Z" class="st5"/>
		</g>
		<g id="shape51-133" v:mID="51" v:groupContext="shape" transform="translate(455.848,-264.473)">
			<title>Sheet.51</title>
			<path d="M175.95 595.28 L76.43 594.48 L0 561.76 L99.51 562.79 L175.95 595.28 Z" class="st6"/>
		</g>
		<g id="shape52-135" v:mID="52" v:groupContext="shape" transform="translate(18,-182.874)">
			<title>Sheet.52</title>
			<path d="M159.22 595.28 L366.2 507.71 L206.98 404.21 L0 483.82 L159.22 595.28 Z" class="st7"/>
		</g>
		<g id="shape53-137" v:mID="53" v:groupContext="shape" transform="translate(-54.7259,-135.828) rotate(-22.9321)">
			<title>Sheet.53</title>
			<path d="M0 595.28 L224.74 595.28" class="st1"/>
		</g>
		<g id="shape54-140" v:mID="54" v:groupContext="shape" transform="translate(-134.15,-191.425) rotate(-22.9321)">
			<title>Sheet.54</title>
			<path d="M0 595.28 L220.73 595.28" class="st1"/>
		</g>
		<g id="shape55-143" v:mID="55" v:groupContext="shape" transform="translate(359.368,-186.719) rotate(34.992)">
			<title>Sheet.55</title>
			<path d="M0 595.28 L194.35 595.28" class="st1"/>
		</g>
		<g id="shape56-146" v:mID="56" v:groupContext="shape" transform="translate(467.127,-228.165) rotate(34.992)">
			<title>Sheet.56</title>
			<path d="M0 595.28 L189.84 595.28" class="st1"/>
		</g>
		<g id="shape57-149" v:mID="57" v:groupContext="shape" transform="translate(283.004,-271.333)">
			<title>Ellipse</title>
			<v:userDefs>
				<v:ud v:nameU="visVersion" v:val="VT0(15):26"/>
			</v:userDefs>
			<path d="M0 589.78 A8.24961 5.49974 0 0 1 16.5 589.78 A8.24961 5.49974 0 0 1 0 589.78 Z" class="st8"/>
		</g>
		<g id="shape58-151" v:mID="58" v:groupContext="shape" transform="translate(205.341,-324.598)">
			<title>Ellipse.249</title>
			<v:userDefs>
				<v:ud v:nameU="visVersion" v:val="VT0(15):26"/>
			</v:userDefs>
			<path d="M0 589.78 A8.24961 5.49974 0 0 1 16.5 589.78 A8.24961 5.49974 0 0 1 0 589.78 Z" class="st9"/>
		</g>
		<g id="shape59-153" v:mID="59" v:groupContext="shape" transform="translate(103.475,-283.327)">
			<title>Ellipse.250</title>
			<v:userDefs>
				<v:ud v:nameU="visVersion" v:val="VT0(15):26"/>
			</v:userDefs>
			<path d="M0 589.78 A8.24961 5.49974 0 0 1 16.5 589.78 A8.24961 5.49974 0 0 1 0 589.78 Z" class="st10"/>
		</g>
		<g id="shape60-155" v:mID="60" v:groupContext="shape" transform="translate(181.407,-226.763)">
			<title>Ellipse.252</title>
			<v:userDefs>
				<v:ud v:nameU="visVersion" v:val="VT0(15):26"/>
			</v:userDefs>
			<path d="M0 589.78 A8.24961 5.49974 0 0 1 16.5 589.78 A8.24961 5.49974 0 0 1 0 589.78 Z" class="st11"/>
		</g>
		<g id="shape61-157" v:mID="61" v:groupContext="shape" transform="translate(85.9573,-419.71)">
			<title>Sheet.61</title>
			<desc>Coarse resolution</desc>
			<v:textBlock v:margins="rect(4,4,4,4)" v:tabSpace="42.5197"/>
			<v:textRect cx="115.143" cy="578.359" width="230.29" height="33.8337"/>
			<rect x="0" y="561.442" width="230.285" height="33.8337" class="st12"/>
			<text x="11.44" y="587.36" class="st13" v:langID="2057"><v:paragraph v:horizAlign="1"/><v:tabList/>Coarse resolution  </text>		</g>
		<g id="shape62-160" v:mID="62" v:groupContext="shape" transform="translate(532.601,-419.71)">
			<title>Sheet.62</title>
			<desc>Finer resolution</desc>
			<v:textBlock v:margins="rect(4,4,4,4)" v:tabSpace="42.5197"/>
			<v:textRect cx="115.143" cy="578.359" width="230.29" height="33.8337"/>
			<rect x="0" y="561.442" width="230.285" height="33.8337" class="st12"/>
			<text x="22.18" y="587.36" class="st13" v:langID="2057"><v:paragraph v:horizAlign="1"/><v:tabList/>Finer resolution  </text>		</g>
		<g id="shape1-163" v:mID="1" v:groupContext="shape" transform="translate(177.217,-326.17)">
			<title>Sheet.1</title>
			<path d="M0 595.28 L206.98 595.28" class="st1"/>
		</g>
		<g id="shape2-166" v:mID="2" v:groupContext="shape" transform="translate(250.836,-346.412) rotate(23.0255)">
			<title>Sheet.2</title>
			<path d="M0 595.28 L173 595.28" class="st1"/>
		</g>
		<g id="shape4-169" v:mID="4" v:groupContext="shape" transform="translate(250.836,-187.194) rotate(23.0255)">
			<title>Sheet.4</title>
			<path d="M0 595.28 L173 595.28" class="st1"/>
		</g>
		<g id="shape3-172" v:mID="3" v:groupContext="shape" transform="translate(-418.058,428.323) rotate(-90)">
			<title>Sheet.3</title>
			<path d="M0 595.28 L159.22 595.28" class="st1"/>
		</g>
		<g id="shape18-175" v:mID="18" v:groupContext="shape" transform="translate(19.7892,428.323) rotate(-90)">
			<title>Sheet.18</title>
			<path d="M0 595.28 L159.22 595.28" class="st1"/>
		</g>
	</g>
</svg>
